<svg width="32" height="32" viewBox="0 0 32 32" fill="none" xmlns="http://www.w3.org/2000/svg">
<g clip-path="url(#clip0_6261_12842)">
<path d="M0 12.8C0 8.31958 0 6.07937 0.871948 4.36808C1.63893 2.86278 2.86278 1.63893 4.36808 0.871948C6.07937 0 8.31958 0 12.8 0H19.2C23.6804 0 25.9206 0 27.6319 0.871948C29.1372 1.63893 30.3611 2.86278 31.1281 4.36808C32 6.07937 32 8.31958 32 12.8V19.2C32 23.6804 32 25.9206 31.1281 27.6319C30.3611 29.1372 29.1372 30.3611 27.6319 31.1281C25.9206 32 23.6804 32 19.2 32H12.8C8.31958 32 6.07937 32 4.36808 31.1281C2.86278 30.3611 1.63893 29.1372 0.871948 27.6319C0 25.9206 0 23.6804 0 19.2V12.8Z" fill="black"/>
<path d="M11.215 13.3827C11.8071 13.3827 12.2052 13.3061 12.4094 13.153C12.6339 12.9998 12.7462 12.6766 12.7462 12.1832C12.7462 11.6898 12.6339 11.358 12.4094 11.1878C12.2052 11.0177 11.8071 10.9326 11.215 10.9326C10.6229 10.9326 10.2145 11.0177 9.98993 11.1878C9.78576 11.358 9.68367 11.6898 9.68367 12.1832C9.68367 12.6766 9.78576 12.9998 9.98993 13.153C10.2145 13.3061 10.6229 13.3827 11.215 13.3827Z" fill="white"/>
<path d="M8.66291 20.8008H5.60034V11.2008H8.66291V20.8008Z" fill="white"/>
<path fill-rule="evenodd" clip-rule="evenodd" d="M22.3105 20.8491C21.3636 20.8491 20.5255 20.6803 19.7962 20.3429C19.0778 19.9946 18.5173 19.4994 18.1146 18.8572C17.7119 18.215 17.5105 17.4531 17.5105 16.5715C17.5105 15.679 17.7119 14.9171 18.1146 14.2858C18.5173 13.6436 19.0778 13.1538 19.7962 12.8164C20.5255 12.4681 21.3636 12.2939 22.3105 12.2939C23.2683 12.2939 24.1064 12.4681 24.8248 12.8164C25.5431 13.1538 26.1037 13.6436 26.5064 14.2858C26.9091 14.9171 27.1105 15.679 27.1105 16.5715C27.1105 17.4531 26.9091 18.215 26.5064 18.8572C26.1037 19.4994 25.5431 19.9946 24.8248 20.3429C24.1064 20.6803 23.2683 20.8491 22.3105 20.8491ZM22.3105 18.1388C23.0071 18.1388 23.4751 18.03 23.7146 17.8123C23.954 17.5837 24.0738 17.1701 24.0738 16.5715C24.0738 15.9729 23.954 15.5593 23.7146 15.3307C23.4751 15.1021 23.0071 14.9878 22.3105 14.9878C21.6139 14.9878 21.1459 15.1021 20.9064 15.3307C20.667 15.5593 20.5472 15.9729 20.5472 16.5715C20.5472 17.1701 20.667 17.5837 20.9064 17.8123C21.1459 18.03 21.6139 18.1388 22.3105 18.1388Z" fill="white"/>
<path d="M13.6993 20.8008H16.7619V11.2008H13.6993V20.8008Z" fill="white"/>
<path d="M12.7462 14.7438V20.8009H9.68367V14.7438H12.7462Z" fill="white"/>
</g>
<defs>
<clipPath id="clip0_6261_12842">
<rect width="32" height="32" fill="white"/>
</clipPath>
</defs>
</svg>
